# This file uses meters as units for non-parametric coordinates.

mtllib clothFolded.mtl
g default
v -0.030200 30.464766 10.301255
v -0.176107 30.464766 -11.126714
v -0.030200 52.351479 10.301255
v -0.176107 52.351479 -11.126714
v -1.657765 52.351479 8.919556
v -1.651245 52.351479 -9.583332
v -1.657765 31.626068 8.919556
v -1.651245 31.626068 -9.583332
v -0.103151 30.464766 -0.412730
v -1.654503 31.626068 -0.331887
v -1.654503 46.500473 -0.331887
v -0.103151 46.500473 -0.412730
v -0.101523 30.464766 -5.038452
v -0.101523 52.351479 -5.038452
v -1.652877 52.351479 -4.957610
v -1.652877 31.626068 -4.957610
v -0.104784 30.464766 4.212994
v -1.656135 31.626068 4.293838
v -1.543940 52.351479 4.111685
v -0.048687 52.351479 4.121918
v 0.052354 52.351479 -0.534867
v -1.598075 52.351479 -0.535448
v 1.444939 31.626068 8.757875
v 1.451459 31.626068 -9.745017
v 1.444939 52.351479 8.757875
v 1.451459 52.351479 -9.745017
v 1.448198 31.626068 -0.493572
v 1.448198 46.500473 -0.493572
v 1.449829 31.626068 -5.119295
v 1.449829 52.351479 -5.119295
v 1.446569 31.626068 4.132152
v 1.446569 52.351479 4.132152
vt 0.375000 0.000000
vt 0.625000 0.000000
vt 0.375000 0.250000
vt 0.625000 0.250000
vt 0.375000 0.500000
vt 0.625000 0.500000
vt 0.375000 0.750000
vt 0.625000 0.750000
vt 0.375000 1.000000
vt 0.625000 1.000000
vt 0.875000 0.000000
vt 0.875000 0.250000
vt 0.125000 0.000000
vt 0.125000 0.250000
vt 0.500000 1.000000
vt 0.500000 0.750000
vt 0.500000 0.500000
vt 0.500000 0.250000
vt 0.562500 1.000000
vt 0.562500 0.250000
vt 0.562500 0.500000
vt 0.562500 0.750000
vt 0.437500 1.000000
vt 0.437500 0.750000
vt 0.437500 0.500000
vt 0.437500 0.250000
vt 0.500000 0.500000
vt 0.500000 0.250000
vt 0.562500 0.250000
vt 0.562500 0.500000
vt 0.500000 0.250000
vt 0.500000 0.000000
vt 0.562500 0.000000
vt 0.562500 0.250000
vt 0.500000 0.500000
vt 0.562500 0.500000
vt 0.500000 1.000000
vt 0.500000 0.750000
vt 0.562500 0.750000
vt 0.562500 1.000000
vt 0.625000 0.000000
vt 0.875000 0.000000
vt 0.875000 0.250000
vt 0.625000 0.250000
vt 0.125000 0.000000
vt 0.375000 0.000000
vt 0.375000 0.250000
vt 0.125000 0.250000
vt 0.437500 1.000000
vt 0.437500 0.750000
vt 0.437500 0.500000
vt 0.437500 0.250000
vt 0.437500 0.000000
vt 0.625000 0.500000
vt 0.625000 0.750000
vt 0.625000 1.000000
vt 0.375000 0.750000
vt 0.375000 1.000000
vt 0.375000 0.500000
vn -0.000002 1.000000 -0.000001
vn -0.000002 1.000000 -0.000001
vn -0.000002 1.000000 -0.000001
vn -0.000002 1.000000 -0.000001
vn -0.999987 0.001588 0.004754
vn -0.999987 0.001594 0.004774
vn -1.000000 0.000000 -0.000352
vn -1.000000 0.000000 -0.000352
vn 0.000000 -1.000000 0.000000
vn -0.599277 -0.800542 -0.000211
vn -0.603513 -0.797350 0.002049
vn 0.001115 -0.999999 0.000059
vn -0.052040 0.000000 -0.998645
vn -0.722908 0.000000 -0.690944
vn -0.722909 0.000000 -0.690944
vn -0.052040 0.000000 -0.998645
vn -0.647178 0.000000 0.762339
vn 0.052039 0.000000 0.998645
vn 0.052039 0.000000 0.998645
vn -0.647178 0.000000 0.762339
vn -0.001115 -0.999999 -0.000059
vn -0.594712 -0.803936 0.002132
vn -0.999993 0.002900 -0.002249
vn -0.999975 0.002795 -0.006497
vn 0.000000 1.000000 0.000000
vn 0.018802 0.932447 0.360817
vn 0.000000 1.000000 0.000000
vn 0.000000 1.000000 0.000000
vn -1.000000 0.000000 -0.000353
vn -1.000000 0.000000 -0.000353
vn -0.607407 -0.794380 0.004136
vn 0.025784 -0.999668 -0.000175
vn -0.591011 -0.806654 0.004024
vn -0.025783 -0.999668 0.000175
vn -0.999922 0.002653 -0.012238
vn -0.999922 0.002653 -0.012238
vn 0.000001 1.000000 0.000000
vn -0.008218 0.934985 -0.354593
vn -0.000001 1.000000 -0.000001
vn -0.000001 1.000000 -0.000001
vn 0.999627 -0.026688 -0.005765
vn 0.999627 -0.026688 -0.005765
vn 0.999627 -0.026688 -0.005765
vn 0.999627 -0.026688 -0.005765
vn 0.000000 1.000000 0.000000
vn 0.000000 1.000000 0.000000
vn 0.000000 1.000000 0.000000
vn 0.000000 1.000000 0.000000
vn -0.999877 0.010061 0.012010
vn -0.999877 0.010061 0.012010
vn -0.999877 0.010061 0.012010
vn -0.999877 0.010061 0.012010
vn 1.000000 0.000000 0.000352
vn 1.000000 0.000000 0.000352
vn 1.000000 0.000000 0.000352
vn 1.000000 0.000000 0.000352
vn 0.017950 0.999772 -0.011540
vn 0.019793 0.999088 0.037843
vn 0.025540 0.871277 0.490127
vn 0.599277 -0.800542 0.000211
vn 0.594712 -0.803936 -0.002132
vn 0.647177 0.000000 -0.762340
vn 0.647177 0.000000 -0.762340
vn 0.722908 0.000000 0.690944
vn 0.722908 0.000000 0.690944
vn 0.603513 -0.797350 -0.002049
vn -0.011801 0.860554 -0.509223
vn 1.000000 0.000000 0.000353
vn 1.000000 0.000000 0.000352
vn 1.000000 0.000000 0.000352
vn 1.000000 0.000000 0.000352
vn 0.000000 1.000000 0.000000
vn 0.591011 -0.806654 -0.004024
vn 0.607407 -0.794380 -0.004136
vn 0.000002 1.000000 0.000001
vn 1.000000 0.000000 0.000353
vn 1.000000 0.000000 0.000353
s off
g pCube39
usemtl initialShadingGroup
f 19/27/1 20/28/2 21/29/3 22/30/4
s 1
f 10/16/5 11/17/6 15/21/7 16/22/8
s 2
f 9/15/9 10/16/10 16/22/11 13/19/12
s 3
f 2/2/13 8/11/14 6/12/15 4/4/16
s 4
f 7/13/17 1/1/18 3/3/19 5/14/20
s 2
f 17/23/21 18/24/22 10/16/10 9/15/9
s 1
f 18/24/23 19/25/24 11/17/6 10/16/5
s 5
f 15/21/25 14/20/26 4/4/27 6/6/28
s 1
f 16/22/8 15/21/7 6/6/29 8/8/30
s 2
f 13/19/12 16/22/11 8/8/31 2/10/32
f 7/7/33 18/24/22 17/23/21 1/9/34
s 1
f 5/5/35 19/25/24 18/24/23 7/7/36
s 5
f 3/3/37 20/26/38 19/25/39 5/5/40
s off
f 12/18/41 14/20/42 21/29/43 20/28/44
f 14/20/45 15/21/46 22/30/47 21/29/48
f 15/21/49 11/17/50 19/27/51 22/30/52
s 7
f 28/31/53 27/32/54 29/33/55 30/34/56
s 5
f 12/35/57 28/31/58 30/34/59 14/36/26
s 2
f 27/37/60 9/38/9 13/39/12 29/40/61
s 3
f 24/41/62 2/42/13 4/43/16 26/44/63
s 4
f 1/45/18 23/46/64 25/47/65 3/48/19
s 2
f 31/49/66 17/50/21 9/38/9 27/37/60
s 5
f 20/51/38 32/52/67 28/31/58 12/35/57
s 7
f 32/52/68 31/53/69 27/32/54 28/31/53
f 30/34/56 29/33/55 24/41/70 26/44/71
s 5
f 14/36/26 30/34/59 26/44/72 4/54/27
s 2
f 29/40/61 13/39/12 2/55/32 24/56/73
f 1/57/34 17/50/21 31/49/66 23/58/74
s 5
f 25/47/75 32/52/67 20/51/38 3/59/37
s 7
f 23/46/76 31/53/69 32/52/68 25/47/77
