# This file uses meters as units for non-parametric coordinates.

mtllib Display Electrics.mtl
g default
v -32.085541 -50.000000 50.000000
v 48.409088 -50.000000 50.000000
v -32.085541 -1.732269 50.000000
v 48.409088 -1.732269 50.000000
v -32.085541 -1.732269 -541.707031
v 48.409088 -1.732269 -541.707031
v -32.085541 -50.000000 -541.707031
v 48.409088 -50.000000 -541.707031
v 8.161774 -50.000000 50.000000
v 8.161774 -50.000000 -541.707031
v 8.161774 -1.732269 -541.707031
v 8.161774 -1.732269 50.000000
v 2.781860 -50.000000 50.000000
v 2.781860 -1.732269 50.000000
v 2.781860 -1.732269 -541.707031
v 2.781860 -50.000000 -541.707031
v 13.541656 -50.000000 -541.707031
v 13.541656 -1.732269 -541.707031
v 13.541656 -1.732269 50.000000
v 13.541656 -50.000000 50.000000
v 2.781860 21.855730 50.000000
v 2.781860 21.855730 -541.707031
v 8.161774 21.855730 50.000000
v 8.161774 21.855730 -541.707031
v 13.541656 21.855730 50.000000
v 13.541656 21.855730 -541.707031
vt 0.375000 0.000000
vt 0.625000 0.000000
vt 0.375000 0.250000
vt 0.625000 0.250000
vt 0.375000 0.500000
vt 0.625000 0.500000
vt 0.375000 0.750000
vt 0.625000 0.750000
vt 0.375000 1.000000
vt 0.625000 1.000000
vt 0.875000 0.000000
vt 0.875000 0.250000
vt 0.125000 0.000000
vt 0.125000 0.250000
vt 0.500000 0.000000
vt 0.500000 1.000000
vt 0.500000 0.750000
vt 0.500000 0.500000
vt 0.500000 0.250000
vt 0.487288 0.000000
vt 0.487288 1.000000
vt 0.487288 0.250000
vt 0.487288 0.500000
vt 0.487288 0.750000
vt 0.512712 0.750000
vt 0.512712 0.500000
vt 0.512712 0.250000
vt 0.512712 0.000000
vt 0.512712 1.000000
vt 0.487288 0.500000
vt 0.487288 0.250000
vt 0.500000 0.250000
vt 0.500000 0.500000
vt 0.512712 0.250000
vt 0.512712 0.500000
vn 0.000000 0.000000 1.000000
vn 0.000000 0.000000 1.000000
vn 0.000000 0.000000 1.000000
vn 0.000000 0.000000 1.000000
vn 0.000000 1.000000 0.000000
vn 0.000000 1.000000 0.000000
vn 0.000000 1.000000 0.000000
vn 0.000000 1.000000 0.000000
vn 0.000000 0.000000 -1.000000
vn 0.000000 0.000000 -1.000000
vn 0.000000 0.000000 -1.000000
vn 0.000000 0.000000 -1.000000
vn 0.000000 -1.000000 0.000000
vn 0.000000 -1.000000 0.000000
vn 0.000000 -1.000000 0.000000
vn 0.000000 -1.000000 0.000000
vn 1.000000 0.000000 0.000000
vn 1.000000 0.000000 0.000000
vn 1.000000 0.000000 0.000000
vn 1.000000 0.000000 0.000000
vn -1.000000 0.000000 0.000000
vn -1.000000 0.000000 0.000000
vn -1.000000 0.000000 0.000000
vn -1.000000 0.000000 0.000000
vn 0.000000 -1.000000 0.000000
vn 0.000000 -1.000000 0.000000
vn 0.000000 -1.000000 0.000000
vn 0.000000 -1.000000 0.000000
vn 0.000000 0.000000 -1.000000
vn 0.000000 0.000000 -1.000000
vn 0.000000 0.000000 -1.000000
vn 0.000000 0.000000 -1.000000
vn 0.000000 1.000000 0.000000
vn 0.000000 1.000000 0.000000
vn 0.000000 1.000000 0.000000
vn 0.000000 1.000000 0.000000
vn 0.000000 0.000000 1.000000
vn 0.000000 0.000000 1.000000
vn 0.000000 0.000000 1.000000
vn 0.000000 0.000000 1.000000
vn 0.000000 0.000000 1.000000
vn 0.000000 0.000000 1.000000
vn 0.000000 1.000000 0.000000
vn 0.000000 1.000000 0.000000
vn 0.000000 1.000000 0.000000
vn 0.000000 1.000000 0.000000
vn 0.000000 0.000000 -1.000000
vn 0.000000 0.000000 -1.000000
vn 0.000000 -1.000000 0.000000
vn 0.000000 -1.000000 0.000000
vn 0.000000 1.000000 0.000000
vn 0.000000 1.000000 0.000000
vn -1.000000 0.000000 0.000000
vn -1.000000 0.000000 0.000000
vn -1.000000 0.000000 0.000000
vn -1.000000 0.000000 0.000000
vn 0.000000 0.000000 1.000000
vn 0.000000 0.000000 1.000000
vn 0.000000 0.000000 1.000000
vn 0.000000 0.000000 1.000000
vn 0.000000 0.000000 -1.000000
vn 0.000000 0.000000 -1.000000
vn 0.000000 0.000000 -1.000000
vn 0.000000 0.000000 -1.000000
vn 0.000000 0.000000 1.000000
vn 0.000000 0.000000 1.000000
vn 0.000000 0.000000 1.000000
vn 0.000000 0.000000 1.000000
vn 1.000000 0.000000 0.000000
vn 1.000000 0.000000 0.000000
vn 1.000000 0.000000 0.000000
vn 1.000000 0.000000 0.000000
vn 0.000000 0.000000 -1.000000
vn 0.000000 0.000000 -1.000000
vn 0.000000 0.000000 -1.000000
vn 0.000000 0.000000 -1.000000
s 1
g pCube44
usemtl initialShadingGroup
f 19/27/1 20/28/2 2/2/3 4/4/4
s off
f 18/26/5 19/27/6 4/4/7 6/6/8
s 2
f 17/25/9 18/26/10 6/6/11 8/8/12
s 3
f 20/29/13 17/25/14 8/8/15 2/10/16
s off
f 2/2/17 8/11/18 6/12/19 4/4/20
f 7/13/21 1/1/22 3/3/23 5/14/24
s 3
f 7/7/25 16/24/26 13/21/27 1/9/28
s 2
f 5/5/29 15/23/30 16/24/31 7/7/32
s off
f 3/3/33 14/22/34 15/23/35 5/5/36
s 1
f 1/1/37 13/20/38 14/22/39 3/3/40
f 13/20/38 9/15/41 12/19/42 14/22/39
s 7
f 22/30/43 21/31/44 23/32/45 24/33/46
s 2
f 16/24/31 15/23/30 11/18/47 10/17/48
s 3
f 13/21/27 16/24/26 10/17/49 9/16/50
s 2
f 10/17/48 11/18/47 18/26/10 17/25/9
s 7
f 24/33/46 23/32/45 25/34/51 26/35/52
s 1
f 12/19/42 9/15/41 20/28/2 19/27/1
s 3
f 9/16/50 10/17/49 17/25/14 20/29/13
s off
f 15/23/53 14/22/54 21/31/55 22/30/56
f 14/22/57 12/19/58 23/32/59 21/31/60
f 11/18/61 15/23/62 22/30/63 24/33/64
f 12/19/65 19/27/66 25/34/67 23/32/68
f 19/27/69 18/26/70 26/35/71 25/34/72
f 18/26/73 11/18/74 24/33/75 26/35/76
